<?xml version="1.0" encoding="utf-8"?>
<!-- Generator: Adobe Illustrator 16.1.0, SVG Export Plug-In . SVG Version: 6.00 Build 0)  -->
<!DOCTYPE svg PUBLIC "-//W3C//DTD SVG 1.1//EN" "http://www.w3.org/Graphics/SVG/1.1/DTD/svg11.dtd">
<svg version="1.1" id="Layer_1" xmlns="http://www.w3.org/2000/svg" xmlns:xlink="http://www.w3.org/1999/xlink" x="0px" y="0px"
	 width="595.28px" height="841.89px" viewBox="0 0 595.28 841.89" enable-background="new 0 0 595.28 841.89" xml:space="preserve">
<g>
	<path d="M58.777,78.836c2.898,1.709,7.436,3.198,12.124,3.198c5.799,0,9.072-2.753,9.072-6.846c0-3.792-2.528-6.022-8.848-8.329
		c-8.336-2.899-13.613-7.366-13.613-14.505c0-8.256,6.842-14.431,17.777-14.431c5.429,0,9.37,1.189,11.975,2.456l-2.158,7.438
		c-1.858-0.968-5.356-2.378-10.041-2.378c-5.802,0-8.256,3.048-8.256,6.023c0,3.868,2.899,5.653,9.594,8.182
		c8.704,3.348,12.869,7.736,12.869,14.879c0,8.105-6.099,15.023-18.967,15.023c-5.354,0-10.862-1.489-13.613-3.124L58.777,78.836z"
		/>
	<path d="M121.999,80.101c0,3.272,0.149,6.471,0.594,8.701h-8.256l-0.669-4.014h-0.224c-2.157,2.828-5.949,4.834-10.71,4.834
		c-7.288,0-11.379-5.282-11.379-10.787c0-9.077,8.104-13.761,21.494-13.688v-0.594c0-2.379-0.965-6.322-7.36-6.322
		c-3.572,0-7.293,1.118-9.745,2.678l-1.786-5.95c2.676-1.64,7.363-3.202,13.093-3.202c11.603,0,14.95,7.366,14.95,15.326V80.101z
		 M113.071,71.101c-6.471-0.076-12.645,1.262-12.645,6.77c0,3.572,2.306,5.206,5.206,5.206c3.722,0,6.325-2.378,7.215-4.981
		c0.224-0.672,0.224-1.34,0.224-2.01V71.101z"/>
	<path d="M127.946,63.365c0-4.167-0.148-7.662-0.296-10.786h7.811l0.445,5.354h0.224c1.71-2.828,4.984-6.175,11.159-6.175
		c4.758,0,8.479,2.682,10.041,6.695h0.146c1.265-2.007,2.755-3.493,4.391-4.534c2.083-1.416,4.389-2.161,7.437-2.161
		c5.953,0,12.051,4.092,12.051,15.695v21.349h-8.924V68.795c0-6.025-2.085-9.597-6.474-9.597c-3.124,0-5.43,2.233-6.395,4.836
		c-0.299,0.817-0.445,2.009-0.445,3.05v21.718h-8.928V67.829c0-5.06-2.01-8.631-6.247-8.631c-3.424,0-5.729,2.678-6.622,5.132
		c-0.297,0.969-0.448,2.009-0.448,3.05v21.421h-8.925V63.365z"/>
	<path d="M203.144,89.623c-10.192,0-18.152-6.994-18.152-18.671c0-11.899,7.811-19.193,18.745-19.193
		c10.787,0,18.002,7.591,18.002,18.598c0,13.313-9.373,19.267-18.522,19.267H203.144z M203.441,83.003
		c5.205,0,8.849-5.06,8.849-12.423c0-5.653-2.527-12.2-8.777-12.2c-6.47,0-9.073,6.322-9.073,12.348
		c0,6.99,3.496,12.275,8.924,12.275H203.441z"/>
	<path d="M230.736,52.579l5.877,18.373c1.042,3.197,1.785,6.099,2.455,9.074h0.224c0.669-2.975,1.489-5.801,2.455-9.074
		l5.802-18.373h9.594l-13.834,36.224h-9l-13.465-36.224H230.736z"/>
	<path d="M286.667,80.101c0,3.272,0.151,6.471,0.599,8.701h-8.259l-0.669-4.014h-0.224c-2.154,2.828-5.95,4.834-10.711,4.834
		c-7.29,0-11.382-5.282-11.382-10.787c0-9.077,8.112-13.761,21.5-13.688v-0.594c0-2.379-0.969-6.322-7.366-6.322
		c-3.571,0-7.288,1.118-9.746,2.678l-1.785-5.95c2.681-1.64,7.367-3.202,13.093-3.202c11.603,0,14.95,7.366,14.95,15.326V80.101z
		 M277.745,71.101c-6.474-0.076-12.647,1.262-12.647,6.77c0,3.572,2.306,5.206,5.208,5.206c3.717,0,6.319-2.378,7.215-4.981
		c0.224-0.672,0.224-1.34,0.224-2.01V71.101z"/>
	<path d="M292.618,64.258c0-4.908-0.077-8.48-0.297-11.679h7.879l0.376,6.843h0.222c1.785-5.057,6.024-7.664,9.966-7.664
		c0.895,0,1.416,0.076,2.16,0.225v8.555c-0.819-0.148-1.637-0.224-2.755-0.224c-4.315,0-7.362,2.751-8.184,6.919
		c-0.145,0.816-0.221,1.782-0.221,2.75v18.818h-9.146V64.258z"/>
	<path d="M93.254,140.203c-2.155,1.041-6.918,2.234-13.017,2.234c-15.916,0-25.588-9.969-25.588-25.216
		c0-16.513,11.531-26.409,26.854-26.409c6.026,0,10.263,1.193,12.124,2.161l-1.934,7.287c-2.378-1.04-5.726-1.933-9.818-1.933
		c-10.193,0-17.553,6.394-17.553,18.446c0,11.01,6.395,18.001,17.48,18.001c3.645,0,7.512-0.745,9.964-1.786L93.254,140.203z"/>
	<path d="M111.624,142.51c-10.192,0-18.152-6.991-18.152-18.671c0-11.9,7.814-19.19,18.746-19.19
		c10.787,0,18.001,7.587,18.001,18.595c0,13.316-9.37,19.266-18.521,19.266H111.624z M111.921,135.89
		c5.205,0,8.853-5.058,8.853-12.423c0-5.654-2.527-12.196-8.78-12.196c-6.47,0-9.073,6.318-9.073,12.348
		c0,6.991,3.499,12.271,8.929,12.271H111.921z"/>
	<path d="M149.854,142.51c-10.189,0-18.149-6.991-18.149-18.671c0-11.9,7.811-19.19,18.745-19.19
		c10.783,0,18.001,7.587,18.001,18.595c0,13.316-9.373,19.266-18.521,19.266H149.854z M150.15,135.89
		c5.208,0,8.856-5.058,8.856-12.423c0-5.654-2.53-12.196-8.779-12.196c-6.47,0-9.077,6.318-9.077,12.348
		c0,6.991,3.499,12.271,8.928,12.271H150.15z"/>
	<path d="M181.39,121.384h0.151c0.889-1.416,1.93-2.978,2.825-4.242l8.85-11.677h11.01l-13.464,14.802l15.323,21.425h-11.23
		l-10.414-15.996l-3.051,3.649v12.347h-8.935v-52.89h8.935V121.384z"/>
	<path d="M243.58,141.692c-1.265-1.266-2.383-2.53-3.943-4.167c-3.72,3.199-8.405,4.985-14.134,4.985
		c-11.009,0-16.512-6.918-16.512-14.134c0-6.766,3.94-11.456,9.669-14.502v-0.3c-2.382-2.751-4.017-6.395-4.017-9.966
		c0-6.324,4.761-12.868,13.982-12.868c7.07,0,12.499,4.312,12.499,11.23c0,5.13-3.051,9.374-10.417,13.089v0.3
		c3.499,3.944,7.294,8.405,10.121,11.456c2.154-3.347,3.644-8.033,4.461-13.317h8.256c-1.338,7.736-3.717,14.062-7.808,18.746
		c2.75,3.124,5.501,6.174,8.552,9.449H243.58z M226.916,135.742c3.571,0,6.474-1.489,8.405-3.425
		c-3.048-3.124-7.808-8.402-12.568-13.834c-2.383,1.564-5.058,4.24-5.058,8.405c0,4.907,3.644,8.854,9.146,8.854H226.916z
		 M228.181,96.614c-3.423,0-5.281,2.901-5.281,6.098c0,2.978,1.413,5.432,3.572,8.035c4.315-2.678,6.767-4.985,6.767-8.48
		c0-2.678-1.562-5.653-4.982-5.653H228.181z"/>
	<path d="M298.342,140.203c-2.154,1.041-6.917,2.234-13.015,2.234c-15.917,0-25.588-9.969-25.588-25.216
		c0-16.515,11.53-26.409,26.854-26.409c6.026,0,10.262,1.193,12.123,2.158l-1.935,7.291c-2.378-1.04-5.725-1.936-9.816-1.936
		c-10.193,0-17.554,6.397-17.554,18.449c0,11.01,6.396,18.001,17.478,18.001c3.647,0,7.515-0.745,9.967-1.786L298.342,140.203z"/>
	<path d="M301.864,88.802h9.149v21.572h0.148c1.115-1.709,2.676-3.124,4.537-4.092c1.86-1.041,4.015-1.634,6.321-1.634
		c6.174,0,12.645,4.092,12.645,15.695v21.349h-9.146v-20.383c0-5.209-1.938-9.221-6.995-9.221c-3.567,0-6.097,2.377-7.138,5.133
		c-0.298,0.816-0.373,1.783-0.373,2.748v21.724h-9.149V88.802z"/>
	<path d="M369,132.988c0,3.275,0.148,6.47,0.596,8.704h-8.256l-0.672-4.02h-0.225c-2.154,2.826-5.948,4.837-10.706,4.837
		c-7.292,0-11.382-5.281-11.382-10.787c0-9.073,8.107-13.762,21.496-13.687v-0.595c0-2.383-0.969-6.322-7.364-6.322
		c-3.571,0-7.291,1.114-9.744,2.675l-1.787-5.95c2.679-1.634,7.365-3.196,13.093-3.196c11.604,0,14.951,7.364,14.951,15.32V132.988z
		 M360.074,123.987c-6.47-0.073-12.645,1.266-12.645,6.767c0,3.571,2.308,5.209,5.206,5.209c3.72,0,6.322-2.382,7.216-4.985
		c0.223-0.668,0.223-1.337,0.223-2.009V123.987z"/>
	<path d="M384.988,96.169v9.296h8.704v6.843h-8.704v15.918c0,4.464,1.192,6.695,4.686,6.695c1.64,0,2.529-0.076,3.569-0.372
		l0.152,6.918c-1.341,0.52-3.794,0.968-6.622,0.968c-3.42,0-6.173-1.121-7.882-2.979c-2.011-2.082-2.903-5.429-2.903-10.189v-16.961
		h-5.133v-6.843h5.133v-6.767L384.988,96.169z"/>
	<path d="M444.862,140.203c-2.154,1.041-6.915,2.234-13.017,2.234c-15.915,0-25.588-9.969-25.588-25.216
		c0-16.515,11.531-26.409,26.854-26.409c6.025,0,10.268,1.193,12.125,2.158l-1.935,7.291c-2.381-1.04-5.727-1.936-9.818-1.936
		c-10.19,0-17.553,6.397-17.553,18.449c0,11.01,6.395,18.001,17.478,18.001c3.646,0,7.513-0.745,9.971-1.786L444.862,140.203z"/>
	<path d="M448.58,88.802h9.148v52.89h-9.148V88.802z"/>
	<path d="M496.405,130.83c0,4.313,0.147,7.884,0.299,10.863h-7.957l-0.448-5.429h-0.224c-1.561,2.525-5.131,6.247-11.676,6.247
		c-6.547,0-12.572-3.945-12.572-15.769v-21.275h9.149v19.712c0,6.026,1.934,9.893,6.771,9.893c3.719,0,6.097-2.531,6.99-4.91
		c0.372-0.743,0.521-1.785,0.521-2.826v-21.869h9.147V130.83z"/>
	<path d="M502.578,88.802h9.147v21.645h0.148c2.235-3.493,6.175-5.799,11.607-5.799c8.849,0,15.176,7.364,15.099,18.37
		c0,13.02-8.256,19.492-16.44,19.492c-4.687,0-8.853-1.786-11.453-6.247h-0.149l-0.445,5.429h-7.811
		c0.148-2.458,0.297-6.474,0.297-10.119V88.802z M511.726,126.741c0,0.741,0.076,1.486,0.224,2.155
		c0.97,3.719,4.166,6.397,8.108,6.397c5.728,0,9.225-4.54,9.225-11.898c0-6.399-3.049-11.607-9.148-11.607
		c-3.72,0-7.142,2.678-8.109,6.695c-0.15,0.668-0.299,1.486-0.299,2.382V126.741z"/>
</g>
</svg>
